<?xml version="1.0" encoding="UTF-8"?>
<svg width="15px" height="21px" viewBox="0 0 15 21" version="1.1" xmlns="http://www.w3.org/2000/svg" xmlns:xlink="http://www.w3.org/1999/xlink">
    <!-- Generator: Sketch 51.3 (57544) - http://www.bohemiancoding.com/sketch -->
    <title>Group 7</title>
    <desc>Created with Sketch.</desc>
    <defs>
        <polygon id="path-1" points="0 0 15 0 15 20.7142857 0 20.7142857"></polygon>
    </defs>
    <g id="Page-1" stroke="none" stroke-width="1" fill="none" fill-rule="evenodd">
        <g id="1_servicios_pantalla_Servicios" transform="translate(-1240.000000, -438.000000)">
            <g id="Group-12" transform="translate(1195.000000, 436.000000)">
                <g id="Group-7" transform="translate(40.000000, 0.000000)">
                    <g id="Group-4" transform="translate(5.000000, 2.142857)">
                        <mask id="mask-2" fill="white">
                            <use xlink:href="#path-1"></use>
                        </mask>
                        <g id="Clip-2"></g>
                        <path d="M3.34294725,17.2672065 L5.00586914,17.2672065 L5.00586914,7.47661008 L3.34294725,7.47661008 L3.34294725,17.2672065 Z M6.66879102,17.2672065 L8.3317129,17.2672065 L8.3317129,7.47661008 L6.66879102,7.47661008 L6.66879102,17.2672065 Z M9.99463478,17.2672065 L11.6575567,17.2672065 L11.6575567,7.47661008 L9.99463478,7.47661008 L9.99463478,17.2672065 Z M1.42857143,19.5509135 C1.42857143,19.7989317 1.62711422,20 1.87201726,20 L13.1279827,20 C13.3728858,20 13.5714286,19.7989317 13.5714286,19.5509135 L13.5714286,5 L1.42857143,5 L1.42857143,19.5509135 Z" id="Fill-1" fill="#050305" mask="url(#mask-2)"></path>
                        <path d="M9.6373326,2.71826049 L5.3626674,2.71826049 L5.3626674,2.5161573 L5.3626674,2.21491949 L5.3626674,1.80742688 L9.6373326,1.80742688 L9.6373326,2.21491949 L9.6373326,2.5161573 L9.6373326,2.71826049 Z M11.3503132,2.21491949 L11.3503132,0.481980502 C11.3503132,0.215795816 11.1457937,0 10.8935184,0 L4.10648164,0 C3.85420632,0 3.64968682,0.215795816 3.64968682,0.481980502 L3.64968682,2.21491949 L3.64968682,2.5161573 L3.64968682,2.81739511 L0.456794823,2.81739511 C0.2045195,2.81739511 0,3.03319093 0,3.29937562 L0,4.5180195 C0,4.78420418 0.2045195,5 0.456794823,5 L1.24580406,5 L13.7541959,5 L14.5432052,5 C14.7954805,5 15,4.78420418 15,4.5180195 L15,3.29937562 C15,3.03319093 14.7954805,2.81739511 14.5432052,2.81739511 L11.3503132,2.81739511 L11.3503132,2.5161573 L11.3503132,2.21491949 Z" id="Fill-3" fill="#050305" mask="url(#mask-2)"></path>
                    </g>
                    <rect id="Rectangle-8" fill-rule="nonzero" x="0" y="0" width="25" height="25"></rect>
                </g>
            </g>
        </g>
    </g>
</svg>