<?xml version="1.0" encoding="UTF-8"?>
<svg width="20px" height="20px" viewBox="0 0 20 20" version="1.1" xmlns="http://www.w3.org/2000/svg" xmlns:xlink="http://www.w3.org/1999/xlink">
    <!-- Generator: Sketch 51.3 (57544) - http://www.bohemiancoding.com/sketch -->
    <title>Group 3</title>
    <desc>Created with Sketch.</desc>
    <defs>
        <polygon id="path-1" points="0 0 20 0 20 20 0 20"></polygon>
    </defs>
    <g id="Page-1" stroke="none" stroke-width="1" fill="none" fill-rule="evenodd">
        <g id="1_servicios_pantalla_Servicios" transform="translate(-1071.000000, -293.000000)">
            <g id="Group-4" transform="translate(1056.000000, 278.000000)">
                <g id="Group-3" transform="translate(15.000000, 15.000000)">
                    <mask id="mask-2" fill="white">
                        <use xlink:href="#path-1"></use>
                    </mask>
                    <g id="Clip-2"></g>
                    <path d="M7.49922234,13.5664478 C4.10544162,13.5664478 1.35349485,10.8310928 1.35349485,7.45612503 C1.35349485,4.08163283 4.10544162,1.34580227 7.49922234,1.34580227 C10.8930031,1.34580227 13.6439933,4.08163283 13.6439933,7.45612503 C13.6439933,10.8310928 10.8930031,13.5664478 7.49922234,13.5664478 M19.6873717,17.9277031 C18.4472261,16.7359786 17.2400808,15.509539 16.0200224,14.2968903 C15.22323,13.5046265 14.4240463,12.7133138 13.6176886,11.9134412 C14.5302216,10.6741618 15.0701847,9.14622442 15.0701847,7.49226671 C15.0701847,3.35451916 11.6969694,0 7.53557061,0 C3.37321525,0 0,3.35451916 0,7.49226671 C0,11.6304898 3.37321525,14.985009 7.53557061,14.985009 C9.09663322,14.985009 10.5462597,14.5132649 11.7495788,13.7048324 C11.9351463,13.7124412 12.0896264,13.8213418 12.2838027,14.0177433 C14.0753899,15.8305342 15.8913687,17.6195477 17.6987386,19.417121 C18.4854874,20.1989228 18.7265338,20.1970206 19.5046738,19.3947703 C19.6055881,19.2911007 19.6998066,19.1802979 19.7849381,19.063313 C20.0828983,18.6586212 20.0900723,18.3147996 19.6873717,17.9277031" id="Fill-1" fill="#050305" mask="url(#mask-2)"></path>
                </g>
            </g>
        </g>
    </g>
</svg>