<?xml version="1.0" encoding="UTF-8"?>
<svg width="20px" height="18px" viewBox="0 0 20 18" version="1.1" xmlns="http://www.w3.org/2000/svg" xmlns:xlink="http://www.w3.org/1999/xlink">
    <!-- Generator: Sketch 51.3 (57544) - http://www.bohemiancoding.com/sketch -->
    <title>Group 8</title>
    <desc>Created with Sketch.</desc>
    <defs>
        <polygon id="path-1" points="0.000285714286 0.414216 15.7674286 0.414216 15.7674286 14.4 0.000285714286 14.4"></polygon>
        <polygon id="path-3" points="0.237214286 0.4248 7.325 0.4248 7.325 8.084016 0.237214286 8.084016"></polygon>
    </defs>
    <g id="Page-1" stroke="none" stroke-width="1" fill="none" fill-rule="evenodd">
        <g id="1_servicios_pantalla_Servicios" transform="translate(-1198.000000, -440.000000)">
            <g id="Group-12" transform="translate(1195.000000, 436.000000)">
                <g id="Group-8">
                    <g id="Group-7-Copy" transform="translate(3.000000, 4.000000)">
                        <g id="Group-3" transform="translate(0.000000, 3.175416)">
                            <mask id="mask-2" fill="white">
                                <use xlink:href="#path-1"></use>
                            </mask>
                            <g id="Clip-2"></g>
                            <path d="M2.93171429,7.074936 C2.45385714,7.463736 1.96957143,7.845336 1.501,8.245656 C1.38171429,8.347896 1.26671429,8.497656 1.22742857,8.645256 C0.920285714,9.849096 0.632428571,11.057256 0.336714286,12.264696 C0.241714286,12.649176 0.137428571,13.032936 0.0374285714,13.416696 C0.0245714286,13.535496 0.0117142857,13.654296 0.000285714286,13.773096 C0.0824285714,14.044536 0.240285714,14.253336 0.507428571,14.366376 C0.612428571,14.377176 0.718142857,14.388696 0.825285714,14.400216 C0.846714286,14.393016 0.868142857,14.380056 0.889571429,14.379336 C2.31742857,14.337576 3.74457143,14.282856 5.17242857,14.264136 C5.67242857,14.258376 6.07457143,14.132376 6.47528571,13.804056 C9.56528571,11.272536 12.6667143,8.754696 15.7674286,6.236856 L11.1117143,0.414216 C8.386,2.635416 5.65885714,4.855176 2.93171429,7.074936" id="Fill-1" fill="#1F1410" mask="url(#mask-2)"></path>
                        </g>
                        <g id="Group-6" transform="translate(12.142857, 0.295416)">
                            <mask id="mask-4" fill="white">
                                <use xlink:href="#path-3"></use>
                            </mask>
                            <g id="Clip-5"></g>
                            <path d="M4.89221429,8.084016 C5.36507143,7.700976 5.83507143,7.315056 6.30721429,6.931296 C6.72935714,6.590016 7.11578571,6.238656 7.27292857,5.694336 C7.29007143,5.528016 7.30792857,5.363856 7.32507143,5.196816 C7.2765,4.622256 6.96078571,4.188096 6.61007143,3.762576 C5.98792857,3.008016 5.37578571,2.244096 4.77507143,1.472256 C4.44007143,1.040256 4.0865,0.644256 3.54578571,0.478656 C3.3815,0.459936 3.21721429,0.441936 3.05292857,0.424656 C2.50578571,0.462096 2.08792857,0.754416 1.6765,1.089936 C1.19721429,1.481616 0.717214286,1.871136 0.237214286,2.262096" id="Fill-4" fill="#1F1410" mask="url(#mask-4)"></path>
                        </g>
                    </g>
                    <rect id="Rectangle-6" fill-rule="nonzero" x="0" y="0" width="25" height="25"></rect>
                </g>
            </g>
        </g>
    </g>
</svg>